<?xml version="1.0" encoding="UTF-8" ?>
<!DOCTYPE svg PUBLIC "-//W3C//DTD SVG 1.1//EN" "http://www.w3.org/Graphics/SVG/1.1/DTD/svg11.dtd">
<svg width="180pt" height="180pt" viewBox="0 0 180 180" version="1.1" xmlns="http://www.w3.org/2000/svg">
<path fill="#000000" d=" M 0.00 0.00 L 22.01 0.00 C 21.98 25.33 21.99 50.66 22.01 75.99 C 42.34 76.02 62.66 76.02 82.99 75.99 C 83.01 50.66 83.02 25.33 82.99 0.00 L 180.00 0.00 L 180.00 22.01 C 155.00 21.98 130.00 21.99 105.01 22.01 C 104.98 74.67 105.01 127.34 105.00 180.00 L 82.99 180.00 C 83.01 152.67 83.01 125.34 82.99 98.01 C 62.66 97.98 42.34 97.98 22.01 98.01 C 21.99 125.34 21.99 152.67 22.00 180.00 L 0.00 180.00 L 0.00 0.00 Z" />
</svg>
